<?xml version="1.0" standalone="no"?>
<!DOCTYPE svg PUBLIC "-//W3C//DTD SVG 20010904//EN"
 "http://www.w3.org/TR/2001/REC-SVG-20010904/DTD/svg10.dtd">
<svg version="1.0" xmlns="http://www.w3.org/2000/svg"
 width="256.000000pt" height="256.000000pt" viewBox="0 0 256.000000 256.000000"
 preserveAspectRatio="xMidYMid meet">
<metadata>
Created by potrace 1.11, written by Peter Selinger 2001-2013
</metadata>
<g transform="translate(0.000000,256.000000) scale(0.100000,-0.100000)"
fill="#000000" stroke="none">
<path d="M771 2225 c-360 -79 -628 -327 -738 -682 -25 -81 -27 -101 -27 -263
0 -162 2 -182 27 -263 101 -329 336 -564 664 -664 83 -25 102 -27 336 -31
l247 -4 0 321 0 321 -174 0 c-228 0 -282 15 -367 99 -47 48 -61 69 -78 125
-26 85 -26 107 0 192 17 56 31 77 78 125 85 84 139 99 367 99 l174 0 0 320 0
320 -222 -1 c-150 0 -244 -5 -287 -14z"/>
<path d="M1758 1917 l322 -322 0 -315 0 -315 -322 -322 -323 -323 563 0 562 0
0 960 0 960 -562 0 -563 0 323 -323z"/>
</g>
</svg>
